<svg width="28" height="28" viewBox="0 0 28 28" fill="none" xmlns="http://www.w3.org/2000/svg">
<path d="M11.6668 19.2059H7.24516C3.3135 19.2059 2.3335 18.254 2.3335 14.4354V7.63667C2.3335 3.81804 3.3135 2.86621 7.24516 2.86621H19.5302C23.4618 2.86621 24.4418 3.81804 24.4418 7.63667" stroke="black" stroke-width="0.9" stroke-linecap="round" stroke-linejoin="round"/>
<path d="M11.6665 24.3278V19.2061" stroke="black" stroke-width="0.9" stroke-linecap="round" stroke-linejoin="round"/>
<path d="M2.3335 14.6738H11.6668" stroke="black" stroke-width="0.9" stroke-linecap="round" stroke-linejoin="round"/>
<path d="M7.86328 24.3281H11.6666" stroke="black" stroke-width="0.9" stroke-linecap="round" stroke-linejoin="round"/>
<path d="M25.6084 14.232V20.7021C25.6084 23.3876 24.9201 24.0562 22.1551 24.0562H18.0134C15.2484 24.0562 14.5601 23.3876 14.5601 20.7021V14.232C14.5601 11.5465 15.2484 10.8779 18.0134 10.8779H22.1551C24.9201 10.8779 25.6084 11.5465 25.6084 14.232Z" stroke="black" stroke-width="0.9" stroke-linecap="round" stroke-linejoin="round"/>
<path d="M20.1187 20.6797H20.1291" stroke="black" stroke-width="0.9" stroke-linecap="round" stroke-linejoin="round"/>
</svg>
